<svg version="1.1" xmlns="http://www.w3.org/2000/svg" viewBox="0 0 919.1496887207031 552.5623482912779" width="1838.2993774414062" height="1105.1246965825558">
  <!-- svg-source:excalidraw -->
  
  <defs>
    <style>
      @font-face {
        font-family: "Virgil";
        src: url("https://excalidraw.com/Virgil.woff2");
      }
      @font-face {
        font-family: "Cascadia";
        src: url("https://excalidraw.com/Cascadia.woff2");
      }
    </style>
  </defs>
  <rect x="0" y="0" width="919.1496887207031" height="552.5623482912779" fill="#ffffff"></rect><g stroke-linecap="round" transform="translate(641.1496887207031 281.4206246584654) rotate(0 134 44.54351806640625)"><path d="M0 0 C0 0, 0 0, 0 0 M0 0 C0 0, 0 0, 0 0 M-1.49 14.25 C2.15 7.9, 8.09 5.73, 11.84 -0.81 M0.22 11.65 C3.49 8.7, 6.78 4.93, 10.33 0.89 M-3.35 25.01 C4.89 15.67, 12.13 10.27, 21.79 -1.83 M0.35 25.51 C8.78 18.24, 14.28 9.89, 22.98 -1.6 M0.74 37.43 C4.21 23.45, 17.98 14.75, 31.08 0.07 M-0.71 36.03 C9.27 28.18, 17.31 15.54, 30.98 1.23 M-1.33 50.15 C14.37 34.84, 29.45 15.59, 44.28 3.49 M-0.31 50.88 C10.97 36.56, 22.98 24.01, 41.67 0.55 M-1.17 61.97 C15.2 41.42, 35.99 16.29, 52.72 0.72 M-0.06 60.11 C18.93 40.02, 34.86 17.86, 53.69 1.78 M-2.73 72.4 C17.61 50.04, 38.27 23.94, 63.72 -3.53 M-1.7 71.53 C24.3 44.7, 48.2 13.26, 62.42 -0.63 M-1.92 85.44 C22.91 64.76, 44.52 41.36, 73.66 2.97 M1.8 85.97 C25.98 51.66, 52.11 22.86, 73.5 -0.7 M6.33 92 C26.58 65.63, 50.68 36.24, 88.95 2.88 M3.6 91.25 C25.66 71.56, 42.68 48.88, 84.26 1.55 M11.78 95.01 C31.33 69.83, 53.81 55.87, 99.02 0.35 M15.31 90.7 C42.29 56.9, 72.95 22.87, 97.3 -1.38 M26.07 89.39 C55.27 53.62, 90.35 18.08, 105.33 -0.01 M24.59 90.74 C55.02 58.73, 84.95 22.61, 105.94 -1.99 M39.41 95.02 C57.01 66.88, 82.52 45.94, 117.72 2.63 M36.37 93.26 C53.05 70.06, 73.14 48.96, 115.08 1.52 M43.04 95.21 C70.44 66.11, 87 41.29, 130.05 -2.68 M47.85 93.68 C76.66 61.32, 102.23 28.99, 125.32 0.68 M58.25 95.78 C86.95 57.49, 116.97 26.65, 137.2 0.83 M57.93 91.4 C79.51 71.08, 98.11 47.23, 138.54 -0.19 M68.68 96.74 C88.78 70.98, 110.85 44.47, 150.77 1.65 M68.11 93.12 C93.08 60.74, 123.59 30.56, 149.98 -0.52 M76 92.32 C111.27 60.33, 135.66 25.54, 155.38 3.73 M78.59 92.27 C99.5 67.46, 119.94 42.33, 157.14 -0.22 M84.91 94.49 C107.77 66.69, 130.57 44.33, 169.69 -2.51 M89.83 92.1 C118.7 61.55, 145.65 27.94, 169.26 -1.17 M102.83 92.91 C129.36 54.13, 164.83 21.59, 179.38 2.84 M98.68 93.06 C116.24 73.27, 132.78 52.71, 180.79 -0.75 M112.17 90.74 C134.71 69.07, 156.49 40.74, 190.17 0.13 M111.23 92.18 C140.8 57.24, 171.71 20.51, 188.94 -1.33 M123.42 91.58 C141.65 63.99, 167.33 43.02, 200.8 -2.8 M120.3 93.45 C149.91 56.51, 177.52 23.9, 203.12 0.25 M132.07 94.52 C148.8 71.15, 169.5 46.7, 208.05 0.34 M130.94 94.4 C147.92 68.71, 167.03 48.7, 210.52 -0.84 M139.64 89.1 C165.1 60.69, 193.6 36.01, 219.73 1.33 M141.96 92.6 C160.79 66.51, 183.41 40.04, 221.52 1.09 M150.7 90.34 C167.47 75.51, 187.88 59.31, 235.68 -3.61 M151.37 92.08 C181.15 57.57, 210.8 24.84, 231.26 0.74 M161.84 93.73 C191.63 61.03, 211.77 31.06, 244.78 -2.76 M161.93 93.94 C186.94 69.26, 207.1 46.49, 245.11 0.33 M174.67 94.23 C205.01 59, 233.87 24.6, 253.92 2.05 M174.63 90.76 C203.44 57.85, 232.57 22.7, 256.18 0.08 M184.85 89.27 C212.03 62.4, 235.91 29.87, 269.05 -1.53 M186.21 93.15 C207.75 69.95, 227.26 43.83, 266.79 0.75 M195.08 89.72 C224.71 59.79, 252.02 24.23, 272.84 2.38 M194.62 92.24 C220.8 59.4, 245.11 30.94, 270.75 1.88 M204.05 90.97 C227.7 65.82, 252.74 36.67, 272.36 17.89 M204.57 94.16 C223.68 74.25, 237.32 55.75, 273.43 17.27 M219.52 91.83 C227.32 78.07, 246.08 59.61, 275.2 27.5 M216.98 94.57 C236.34 69.78, 251.7 50.84, 272.41 28.67 M223.27 89.61 C239.2 84.22, 250.62 65.94, 270.72 37.22 M226.52 93.14 C244.5 73.37, 261 51.94, 271.3 42.39 M240.11 91.08 C253.16 74.28, 267.21 63.84, 270.37 51.79 M239.09 92.06 C251 78.56, 265.56 60.39, 272.43 52 M246.88 91.47 C255.16 81.07, 265.8 70.07, 275.27 66.68 M249.33 90.52 C253.74 84.11, 259.86 79.85, 273.07 65.85 M257.44 93.49 C267.4 88.34, 271.15 77.6, 272.56 79.8 M258.09 91.25 C261.46 88.96, 264.61 85.15, 274.18 78.29 M-0.34 88.79 C-0.34 88.79, -0.34 88.79, -0.34 88.79 M-0.34 88.79 C-0.34 88.79, -0.34 88.79, -0.34 88.79 M12.93 86.07 C9.1 81.66, 0.66 83.43, -0.15 76.52 M11.44 88.07 C10.89 87.1, 6.23 84.48, 0.1 78.81 M20.93 92.24 C12.81 85.98, 10.6 78.67, 1.19 71.28 M23.09 88.23 C18.78 84.52, 13.51 80.1, 1.02 68.94 M38.45 86.12 C24.66 77.72, 8.09 66.49, -0.93 60.29 M37.27 90.9 C22.17 79.13, 11.87 66.04, 0.83 56.48 M51.61 88.19 C31.73 72.97, 15.26 60.82, 2.59 43.19 M48.34 89.65 C35.04 74.92, 17.66 62.54, -1.47 48.14 M57.45 88.97 C46.4 77.25, 27.03 60.33, 4.07 39.72 M62.08 88.81 C45.55 74.54, 33.44 64.41, 0.99 34.87 M69.82 92.1 C51.41 68.52, 32.44 55.88, 0.91 29.08 M73.74 90.34 C56.67 73.42, 37.4 60.57, 1.33 27.14 M89.34 90.73 C65.36 66.09, 37.7 45.08, 0.49 16.94 M86.58 89.78 C55.74 58.5, 22.8 32.35, 0.41 13.43 M96.92 90.44 C79.42 72.02, 54.84 59.33, 1.26 6.46 M97.81 90.64 C76.12 73.03, 56.08 53.98, 0.31 2.74 M111.74 85.63 C83 61.05, 50.32 40.31, 0.7 -4.13 M109.14 88.3 C69.69 57.07, 35.32 25.08, 4.88 -2.29 M125.01 87.14 C96.15 62.4, 63.74 39.05, 16.35 -2.5 M121.04 89.14 C94.29 63.5, 63.63 37.18, 13.21 -2.89 M137.74 85.98 C89.71 49.81, 52.25 18.16, 24.66 -6.98 M134.93 89.73 C102.44 59.67, 69.27 30.56, 27.03 -5.38 M146.69 85.63 C108.25 53.08, 68.66 21.03, 38.97 -1.89 M147.71 88.68 C118.78 60.01, 86.32 33.31, 41.12 -5.04 M161.94 93.01 C124.48 65.65, 98.07 34.5, 54.36 -1.06 M157.8 89.07 C135.35 68.93, 112.66 45.48, 52.73 -2.12 M168.82 86.86 C130.6 54.18, 90.64 22.83, 65.19 -0.87 M171.58 90.36 C129.05 52.76, 88.47 17.58, 63.62 -3.35 M181.7 85.39 C153.66 60.06, 119.39 28.68, 75.12 -3.89 M181.66 87.52 C151.79 60.56, 119.55 33.73, 74.5 -2.14 M193.74 85.92 C172.81 71.64, 148.46 52.42, 86.84 -7.25 M197.15 90.18 C173.38 68.37, 146.11 46.94, 87.35 -3.36 M210.86 89.3 C169.82 63.94, 143.04 34.62, 99.81 -6.91 M206.14 90.54 C172.64 59.2, 135.71 28.78, 99.6 -4.21 M221.3 90.78 C179.33 59.04, 149.85 27.63, 112.28 -5.35 M217.69 89.75 C184.39 56.55, 145.88 26.86, 114.7 -2.36 M229.54 88.45 C190.11 54.85, 160.2 23.29, 122.78 -4.63 M232.37 89.86 C197.97 56.4, 163.21 27.19, 124.04 -5.47 M246.86 87.52 C217.32 68.2, 199.88 49.23, 140.11 -5.97 M245.22 89.56 C216.71 68.95, 192.29 47.04, 137.54 -3.36 M253.32 92.69 C225.94 60.46, 202.75 43.25, 149.13 -6.14 M256.25 88.1 C221.87 56.98, 184.6 25.38, 149.83 -4.82 M271.27 91.1 C242.56 64.79, 212.44 41.58, 164.45 -1.77 M268.48 87.71 C245.19 68.63, 220.97 46.66, 162.53 -2.5 M267.24 82.21 C233.75 54.44, 210.97 25.26, 176.46 -5.01 M266.33 79 C230.69 49.55, 198.81 19.16, 174.74 -4.95 M265.98 64.95 C245.57 46.46, 216.33 23.79, 184.87 -4.54 M270.1 67.56 C242.74 45.89, 217.14 21.37, 185.05 -2.29 M271.15 57.21 C249.83 40.08, 220.09 19.66, 200.62 -5.26 M269.25 57.01 C248.14 40.29, 225.67 19.94, 198.02 -2.24 M266.49 45.35 C255.97 35.16, 236.74 22.97, 211.73 -0.6 M267.98 46.01 C257.13 35.6, 245.47 28.01, 210.47 -3.03 M268.73 35.2 C253.75 24.68, 239.69 11.16, 220.98 -0.83 M266.72 34.69 C251.77 21.91, 230.85 6.41, 221.69 -2.2 M268.65 23.07 C253.99 13.31, 241.28 -1.24, 231.9 -0.76 M267.64 27.24 C257 18.39, 249.05 7.65, 235.95 -4.75 M268.07 14.71 C260.95 13.56, 255.06 9.8, 250.36 -4.74 M268.14 14.34 C263.46 7.8, 253.66 1.75, 248.51 -4.71 M268.51 4.27 C265.55 1.83, 259.43 -1.91, 261.08 -2.9 M267.03 3.85 C265.38 1.6, 262.21 -0.66, 259.67 -4.65" stroke="#4c6ef5" stroke-width="1" fill="none"></path><path d="M1.72 2.7 C75.62 3.33, 159.75 3.47, 269.15 2.15 M-0.45 0.28 C70.65 -3.19, 138.67 -0.88, 268.01 0.69 M269.47 3.57 C266.14 19.1, 266.05 38.09, 266.36 89.98 M269.8 0.88 C268.25 37.08, 265.54 71.19, 268.8 90.24 M270.7 88.54 C171.05 93.55, 72.92 89.99, 3.13 86.58 M266.94 88.74 C177.22 85.97, 87.01 85.44, -0.17 88 M-0.08 91.95 C-1.16 55.89, -0.94 21.73, 2.44 2.95 M1.12 88.16 C0.31 57.49, 0.42 28.04, -1.27 1.12" stroke="#000000" stroke-width="2" fill="none"></path></g><g stroke-linecap="round"><g transform="translate(345.36089267150317 312.0805940643785) rotate(90.3250376917386 111.83636901246409 -1.5467620303594174)"><path d="M0.39 -0.12 C37.39 -0.48, 185.03 -2.4, 222.4 -2.97 M-0.86 -1.23 C36.46 -1.35, 186.98 -1.43, 224.53 -1.68" stroke="#000000" stroke-width="1" fill="none"></path></g></g><g stroke-linecap="round" transform="translate(443.0022747863511 423.6183179248868) rotate(90.3250376917386 15.356941268515655 14.612019844674734)"><path d="M14.16 -0.79 C21.3 1.75, 21.22 5.09, 31.56 14.3 M16.26 -0.49 C22.15 5.45, 26.83 10.53, 31.34 14.4 M32.63 16.24 C24.92 19.82, 21.05 22.8, 15.32 27.59 M31.53 14.91 C25.39 18.07, 21.19 22.27, 15.46 29.16 M17.84 30.8 C12.8 24.48, 8.65 21.48, 1.13 13.34 M16.05 28.77 C11.04 25.77, 6.53 19.87, -0.66 15.02 M-0.98 14.96 C5.4 7.39, 13.51 3.61, 15.96 -1.88 M0.71 15.32 C4.23 10.17, 7.82 7.73, 15.31 -0.63" stroke="#000000" stroke-width="1" fill="none"></path></g><g transform="translate(449.19312714208024 439.1298979084082) rotate(90.3250376917386 9.050509587993801 -0.5973475723723141)" stroke="none"><path fill="#000000" d="M -1.84,-2.24 Q -1.84,-2.24 -1.57,-2.54 -1.31,-2.84 -0.61,-3.84 0.08,-4.84 1.01,-5.87 1.94,-6.89 2.77,-7.59 3.60,-8.29 4.71,-8.92 5.81,-9.55 6.68,-10.26 7.55,-10.97 9.68,-11.08 11.81,-11.20 12.79,-10.13 13.76,-9.07 14.71,-8.33 15.66,-7.59 16.60,-7.06 17.53,-6.54 18.51,-6.08 19.49,-5.62 20.48,-4.92 21.47,-4.23 22.00,-2.38 22.53,-0.54 22.01,0.48 21.49,1.50 20.57,2.43 19.64,3.36 18.78,4.05 17.91,4.74 16.61,5.45 15.32,6.17 14.29,6.53 13.26,6.89 12.15,7.28 11.04,7.66 9.99,7.98 8.93,8.29 7.40,8.32 5.86,8.34 4.58,8.14 3.31,7.93 1.72,7.40 0.13,6.87 -1.09,6.25 -2.31,5.63 -2.85,3.97 -3.38,2.31 -3.05,1.19 -2.72,0.07 -1.86,-0.57 -1.01,-1.22 0.10,-1.68 1.21,-2.14 2.65,-2.52 4.08,-2.90 5.12,-3.40 6.16,-3.90 6.59,-5.31 7.01,-6.72 6.76,-7.76 6.52,-8.81 6.74,-10.12 6.97,-11.44 6.99,-11.65 7.00,-11.86 7.16,-12.29 7.32,-12.73 7.58,-13.11 7.83,-13.49 8.17,-13.80 8.51,-14.11 8.92,-14.33 9.32,-14.55 9.77,-14.67 10.22,-14.79 10.68,-14.79 11.14,-14.80 11.59,-14.70 12.04,-14.59 12.45,-14.38 12.86,-14.18 13.21,-13.87 13.56,-13.57 13.83,-13.20 14.09,-12.82 14.26,-12.39 14.43,-11.96 14.49,-11.51 14.56,-11.05 14.51,-10.59 14.46,-10.13 14.44,-8.96 14.43,-7.79 14.60,-6.70 14.78,-5.60 14.94,-4.49 15.11,-3.38 15.12,-1.99 15.13,-0.59 15.03,0.77 14.93,2.14 14.59,3.29 14.25,4.45 13.80,5.41 13.36,6.38 13.23,5.15 13.10,3.92 13.65,5.05 14.19,6.17 13.98,7.50 13.77,8.84 13.66,7.39 13.55,5.93 13.81,7.52 14.06,9.10 12.34,7.74 10.63,6.38 9.34,6.54 8.06,6.70 8.93,5.73 9.80,4.76 10.72,3.88 11.63,3.00 12.50,2.22 13.36,1.44 14.50,0.61 15.63,-0.21 16.59,-0.82 17.54,-1.44 17.64,0.36 17.73,2.18 16.28,1.26 14.82,0.34 13.74,-0.28 12.66,-0.91 11.67,-1.72 10.68,-2.53 10.21,-3.54 9.75,-4.55 9.39,-5.67 9.03,-6.80 9.97,-7.58 10.90,-8.37 10.81,-7.08 10.72,-5.79 10.62,-4.57 10.53,-3.36 10.39,-2.29 10.25,-1.22 9.98,-0.14 9.71,0.93 9.41,1.96 9.10,3.00 7.98,1.65 6.85,0.30 8.12,0.80 9.40,1.30 10.88,2.17 12.37,3.04 12.75,4.09 13.13,5.14 12.89,6.49 12.66,7.84 11.18,9.04 9.71,10.25 8.52,10.31 7.34,10.37 6.26,10.18 5.18,9.98 4.13,9.51 3.08,9.05 2.08,8.56 1.08,8.07 0.14,7.48 -0.78,6.89 -1.98,6.55 -3.17,6.21 -4.41,5.30 -5.64,4.38 -5.54,4.36 -5.44,4.33 -5.78,4.01 -6.12,3.68 -6.38,3.28 -6.63,2.88 -6.78,2.43 -6.93,1.98 -6.97,1.51 -7.01,1.04 -6.94,0.57 -6.87,0.11 -6.68,-0.32 -6.50,-0.75 -6.21,-1.13 -5.93,-1.51 -5.57,-1.81 -5.20,-2.11 -4.77,-2.32 -4.35,-2.52 -3.88,-2.62 -3.42,-2.71 -2.95,-2.70 -2.47,-2.68 -2.02,-2.55 -1.57,-2.42 -1.15,-2.18 -0.74,-1.95 -3.10,1.19 -5.45,4.35 -5.79,4.02 -6.13,3.69 -6.39,3.29 -6.64,2.90 -6.79,2.45 -6.94,2.00 -6.98,1.53 -7.02,1.06 -6.95,0.59 -6.87,0.12 -6.69,-0.30 -6.51,-0.74 -6.22,-1.12 -5.94,-1.50 -5.57,-1.80 -5.21,-2.10 -4.78,-2.30 -4.36,-2.51 -3.89,-2.60 -3.43,-2.70 -2.96,-2.68 -2.48,-2.66 -2.03,-2.53 -1.57,-2.40 -1.16,-2.17 -0.75,-1.93 0.32,-1.93 1.40,-1.93 2.42,-1.62 3.44,-1.31 4.82,-0.66 6.20,-0.00 7.02,0.86 7.84,1.73 8.72,2.59 9.59,3.45 10.12,6.65 10.65,9.84 9.25,10.04 7.85,10.24 6.38,9.64 4.90,9.05 3.60,8.26 2.31,7.47 0.71,5.64 -0.87,3.80 -1.16,3.34 -1.45,2.88 -1.58,2.35 -1.71,1.82 -1.66,1.28 -1.62,0.74 -1.40,0.24 -1.18,-0.25 -0.82,-0.65 -0.45,-1.06 0.01,-1.32 0.49,-1.59 1.02,-1.69 1.56,-1.79 2.10,-1.71 2.64,-1.64 3.12,-1.39 3.61,-1.15 3.99,-0.76 4.38,-0.38 4.62,0.10 4.86,0.59 4.93,1.13 5.00,1.67 4.89,2.21 4.79,2.74 4.52,3.21 4.25,3.68 3.84,4.05 3.43,4.41 2.93,4.62 2.43,4.83 1.89,4.88 1.35,4.92 0.82,4.78 0.29,4.65 -0.16,4.35 -0.61,4.06 -0.95,3.63 -1.29,3.21 -1.48,2.70 -1.66,2.18 -1.67,1.64 -1.69,1.10 -1.52,0.58 -1.36,0.06 -1.04,-0.37 -0.72,-0.82 -0.28,-1.13 0.15,-1.45 0.67,-1.60 1.20,-1.76 1.74,-1.74 2.28,-1.73 2.79,-1.54 3.30,-1.35 3.73,-1.00 4.15,-0.66 4.15,-0.66 4.15,-0.66 4.92,0.16 5.70,0.98 7.01,1.58 8.32,2.18 9.59,3.12 10.86,4.05 9.77,3.90 8.67,3.74 7.30,3.92 5.93,4.11 5.88,7.05 5.83,10.00 4.87,9.39 3.91,8.78 3.06,7.68 2.22,6.58 1.04,6.13 -0.12,5.69 -1.66,5.43 -3.19,5.18 -4.32,4.76 -5.45,4.35 -5.79,4.02 -6.13,3.69 -6.39,3.29 -6.64,2.90 -6.79,2.45 -6.94,2.00 -6.98,1.53 -7.02,1.06 -6.95,0.59 -6.87,0.12 -6.69,-0.30 -6.51,-0.74 -6.22,-1.12 -5.94,-1.50 -5.57,-1.80 -5.21,-2.10 -4.78,-2.30 -4.36,-2.51 -3.89,-2.60 -3.43,-2.70 -2.96,-2.68 -2.48,-2.66 -2.03,-2.53 -1.57,-2.40 -1.16,-2.17 -0.75,-1.93 -3.10,1.19 -5.44,4.33 -5.78,4.01 -6.12,3.68 -6.38,3.28 -6.63,2.88 -6.78,2.43 -6.93,1.99 -6.97,1.51 -7.01,1.04 -6.94,0.58 -6.87,0.11 -6.68,-0.32 -6.50,-0.75 -6.21,-1.13 -5.93,-1.51 -5.57,-1.81 -5.20,-2.11 -4.77,-2.32 -4.35,-2.52 -3.88,-2.62 -3.42,-2.71 -2.95,-2.70 -2.48,-2.68 -2.02,-2.55 -1.57,-2.42 -1.16,-2.18 -0.74,-1.95 0.00,-1.42 0.75,-0.90 2.04,-0.36 3.33,0.18 4.22,0.83 5.10,1.49 6.58,2.07 8.05,2.66 6.97,3.37 5.89,4.09 5.69,5.20 5.49,6.32 6.00,7.40 6.51,8.49 5.27,7.96 4.02,7.44 3.06,6.71 2.10,5.98 1.68,4.55 1.26,3.11 1.51,1.97 1.75,0.83 2.12,-0.39 2.48,-1.62 2.69,-2.78 2.91,-3.94 2.99,-5.03 3.06,-6.13 3.15,-7.32 3.23,-8.51 3.48,-9.67 3.73,-10.84 4.45,-11.70 5.18,-12.57 6.24,-13.10 7.31,-13.64 8.36,-13.85 9.41,-14.05 10.94,-13.82 12.47,-13.59 13.44,-12.92 14.42,-12.25 15.20,-11.16 15.97,-10.06 16.07,-8.83 16.17,-7.59 17.24,-6.98 18.31,-6.36 19.81,-5.55 21.30,-4.74 22.74,-3.45 24.18,-2.16 24.51,-1.02 24.84,0.10 24.15,1.86 23.46,3.62 22.49,4.41 21.53,5.20 20.55,5.83 19.58,6.45 18.62,7.21 17.66,7.97 16.65,8.98 15.64,10.00 14.89,10.81 14.13,11.63 13.09,12.52 12.05,13.41 10.91,13.47 9.77,13.53 8.48,12.95 7.19,12.37 6.69,10.95 6.20,9.52 6.33,8.40 6.46,7.27 6.61,8.53 6.75,9.79 6.50,8.54 6.24,7.28 6.81,6.12 7.39,4.96 6.94,5.96 6.49,6.96 7.07,7.90 7.65,8.84 6.97,7.99 6.28,7.13 6.05,6.06 5.81,4.98 6.20,3.74 6.59,2.51 6.93,1.31 7.27,0.11 7.38,-1.03 7.50,-2.18 7.35,-3.33 7.19,-4.48 6.98,-5.77 6.77,-7.06 6.73,-8.26 6.68,-9.47 6.84,-10.66 7.00,-11.86 7.16,-12.29 7.32,-12.73 7.58,-13.11 7.83,-13.49 8.17,-13.80 8.51,-14.11 8.92,-14.33 9.32,-14.55 9.77,-14.67 10.22,-14.79 10.68,-14.79 11.14,-14.80 11.59,-14.70 12.04,-14.59 12.45,-14.38 12.86,-14.18 13.21,-13.87 13.56,-13.57 13.83,-13.20 14.09,-12.82 14.26,-12.39 14.43,-11.96 14.49,-11.51 14.56,-11.05 14.51,-10.59 14.46,-10.13 14.41,-9.93 14.37,-9.73 14.37,-8.62 14.36,-7.51 14.39,-6.13 14.41,-4.74 13.90,-3.74 13.38,-2.74 12.88,-1.29 12.37,0.14 11.43,1.13 10.48,2.11 8.89,3.01 7.30,3.91 5.92,4.18 4.55,4.45 3.42,4.62 2.29,4.78 2.58,3.73 2.87,2.69 3.19,1.42 3.51,0.15 4.83,0.45 6.14,0.75 7.28,0.65 8.43,0.54 9.56,0.13 10.68,-0.27 11.77,-0.67 12.87,-1.08 14.07,-1.63 15.28,-2.19 15.18,-0.89 15.08,0.39 13.96,-0.06 12.85,-0.52 11.91,-1.34 10.97,-2.17 10.10,-3.01 9.23,-3.86 8.80,-4.89 8.36,-5.93 9.37,-5.29 10.38,-4.66 9.14,-4.03 7.89,-3.41 6.76,-2.91 5.63,-2.41 4.72,-1.48 3.80,-0.54 3.02,0.21 2.24,0.96 1.93,1.20 1.61,1.44 1.37,1.62 1.12,1.80 0.84,1.92 0.56,2.04 0.26,2.08 -0.03,2.13 -0.34,2.10 -0.64,2.07 -0.93,1.97 -1.22,1.87 -1.47,1.70 -1.73,1.54 -1.94,1.31 -2.15,1.09 -2.30,0.83 -2.45,0.56 -2.53,0.27 -2.61,-0.02 -2.62,-0.32 -2.63,-0.63 -2.56,-0.93 -2.50,-1.22 -2.36,-1.50 -2.23,-1.77 -2.03,-2.01 -1.84,-2.24 -1.84,-2.24 L -1.84,-2.24 Z"></path></g><g transform="translate(646.1496887207031 313.46414272487164) rotate(0 129 12.5)"><text x="129" y="18" font-family="Virgil, Segoe UI Emoji" font-size="20px" fill="#000000" text-anchor="middle" style="white-space: pre;" direction="ltr">Archive</text></g><g stroke-linecap="round" transform="translate(10 102.07296840846539) rotate(0 134 44.54351806640625)"><path d="M0 0 C0 0, 0 0, 0 0 M0 0 C0 0, 0 0, 0 0 M0.51 13.62 C3.57 10.35, 5.69 8.13, 8.03 0.42 M-0.25 11.76 C2.33 9.61, 7.5 5.44, 9.48 -1.19 M-3.23 27.84 C2.47 20.33, 13.61 11.05, 20.93 0.45 M-0.11 22.22 C3.99 19.66, 10.46 13.03, 22.63 -0.55 M0.9 34.42 C14.91 19.47, 23.03 7.24, 30.65 -0.13 M-1.75 38.84 C11.46 24.72, 19.68 12.33, 30.22 -0.06 M-3.08 46.79 C14.09 33.36, 26.35 23.81, 39.36 0.62 M-1.44 49.07 C14.26 34.27, 26.82 18.32, 41.61 -1.85 M2.25 64.3 C16.48 40.6, 30.46 25.63, 56.36 1.58 M0.21 59.42 C15.95 42.1, 32.86 21.98, 54.47 -1.57 M1.45 74.57 C24.22 47.67, 49.97 17.05, 60.43 3.64 M-0.78 73.88 C14.43 60.56, 25.42 45.62, 64.99 0.9 M-3.47 83.25 C28.61 54.32, 56.63 21.06, 74.79 -1.25 M2.18 84.19 C18.59 63.62, 35.6 41.58, 74.37 -1.12 M5.91 90.5 C33.24 55.91, 71.27 17.71, 82.16 -1.13 M4.58 90.77 C24.38 69.85, 45.24 42.65, 83.32 0.46 M14.18 94.03 C33.57 65.96, 57.62 40.86, 91.71 1 M16.14 94.3 C33.53 72.85, 52.48 49.68, 94.59 -2.06 M23.2 95.11 C51.79 59.72, 80.99 28.99, 110.09 0.17 M27.42 94.27 C46.47 73.46, 61.55 53.02, 107.41 1.35 M38.86 93.54 C58.38 65.67, 81.04 39.39, 119.74 3.18 M36.04 92.34 C69.44 56.98, 99.14 22.63, 115.4 0.73 M43.53 92.11 C76.47 56.94, 110.05 23.57, 124.57 -1.38 M46.63 93.4 C77.37 61.88, 105.43 26.63, 127.65 0.58 M55.04 93.67 C83.56 66.23, 107 34.99, 140.96 -1.62 M57.34 91.1 C90.5 58.94, 120.02 20.39, 139.3 1.9 M65.03 90.86 C91.93 65.55, 109.14 43.96, 147.44 -0.41 M65.71 94.05 C100.81 58.97, 131.01 22.52, 148.65 0.66 M76.58 92.05 C105.32 62.19, 129.71 35.2, 158.99 -1.55 M77.71 92.36 C107.92 59.61, 135.85 27.24, 159.04 2.07 M87.27 90.94 C104.08 72.95, 122.01 49.53, 166.07 3.17 M90.4 91.6 C117.17 55.93, 150.94 20.73, 169.31 2.09 M102.81 92.5 C130.08 60.76, 154.11 30.01, 177.6 -1 M101 91.36 C129.04 57.72, 157.93 27.15, 180.31 0.89 M107.37 94.72 C126.41 66.21, 145.85 47.58, 191.98 1.22 M108.73 91.44 C127.52 72.04, 146.38 52.03, 189.42 0.4 M122.61 93.64 C152.01 60.97, 182.57 20.92, 200.07 -3.87 M121.35 93.37 C139.49 69.88, 163.48 44.75, 201.03 1.75 M130.62 96.3 C157.57 59.84, 179.78 31.97, 212.19 2.08 M129.63 93.94 C158.25 61.07, 186.93 27.39, 213.04 -1.17 M140.99 93.81 C157.63 68.7, 178.38 52.4, 221.16 2.44 M141.83 94.66 C168.02 64.2, 191.81 36.51, 223.38 -0.23 M153.77 90.28 C177.11 66.85, 196.68 44.48, 229.24 -1.39 M154.25 91.26 C168.89 72.41, 185.68 55.43, 232.48 0.42 M162.48 91.87 C191.34 59.6, 220.27 23.32, 243.16 -0.97 M161.72 91.23 C186.65 63.03, 212.29 31.45, 245.78 1.85 M173.11 95.77 C201.3 57.47, 239.45 21.8, 253.14 0.17 M172.05 91.28 C194.98 70.81, 215.37 44.42, 256.27 -0.09 M183.11 95.18 C209.6 59.62, 243.32 22.49, 267.84 -0.49 M184.58 90.85 C213.71 58.5, 239.68 26.94, 266.91 -1.37 M192.41 92.35 C218.19 65.81, 234.41 44.1, 274.13 4.37 M196.68 93.63 C217.66 64.63, 240.03 40.18, 273.94 3.59 M206.39 95.57 C222.48 77.46, 234.65 62.51, 274.69 17.82 M206.21 93.03 C230.63 59.78, 257.47 32.71, 271.92 16.34 M214.93 92.14 C230.05 79.25, 241.6 66.22, 270.15 30.92 M218.07 93.7 C230.52 72.78, 247.35 54.18, 271.45 27.08 M227.36 93.4 C233.66 76.71, 243.62 68.7, 270.39 37.78 M226.66 93.03 C239.64 78.73, 249.27 66.64, 273.89 42.31 M235.47 91.73 C248.23 81.72, 262.03 69.48, 268.76 52.8 M238.41 90.63 C246.04 78.97, 261.02 68.17, 273.14 54.51 M248.53 89.53 C257.99 85.68, 261.96 82.67, 271.74 64.67 M246.24 93.86 C254.15 82.81, 262.57 72.5, 272.77 64.64 M256.28 96.23 C263.32 92.11, 264.81 84.14, 269.3 74.1 M260.11 91.31 C263.1 87.66, 266.43 82.06, 271.88 76.4 M-0.34 88.79 C-0.34 88.79, -0.34 88.79, -0.34 88.79 M-0.34 88.79 C-0.34 88.79, -0.34 88.79, -0.34 88.79 M11.67 91.72 C8.58 86.35, 6.16 83.95, -1.67 76.44 M13.97 90.98 C10.31 88.12, 7.16 85.84, 0.17 79.47 M24.87 87.38 C13.48 81.16, 7.38 76.33, -0.61 71.85 M23 89.63 C13.08 82.4, 5.38 73.25, 1.61 66.34 M40.53 91.57 C25.96 81.94, 15.66 68.18, 1.03 55.66 M37.77 90.9 C25.17 81.7, 16.12 74.31, -0.79 58.09 M51.61 88.31 C34.74 79.21, 18.13 62.58, 4.04 44.07 M47.06 88.33 C33.81 75.26, 21.03 63.71, -0.02 47.46 M57.64 90.21 C38.67 70.61, 24.18 55.51, 2.22 39.01 M59.44 89.43 C41.68 70.2, 20.85 53.04, 0.61 38.06 M76.4 88.59 C54.9 68.21, 30.15 55.04, 1.78 25.39 M74.71 90.07 C56.32 74.06, 38.9 59.67, -1.19 26.73 M87.88 87.81 C62.89 69.77, 38.72 50.64, 0.45 16.19 M87.44 89.41 C52.94 59.13, 19.28 29.39, -0.22 17.04 M97.77 90.26 C68.02 64.33, 30.1 36.87, -1.61 1.4 M97.97 87.29 C62.04 59.9, 32.31 33.29, -1.23 4.79 M113.5 90.68 C84.14 67.25, 51.41 46.64, 4.26 -4.32 M107.92 87.16 C74.48 57.57, 37.54 26.69, 2.54 -1.85 M123.97 89.84 C87.43 56.35, 46.8 23.68, 14.22 -4.66 M123.41 90.17 C88.47 60.99, 56.78 32.4, 15.89 -4.86 M135.3 92.21 C106.44 62.95, 78.55 36.52, 28.8 -0.42 M134.34 89.38 C101.76 59.59, 74.96 36.45, 26.04 -2.6 M146.8 92.33 C112.2 59.04, 71.06 28.51, 40.78 -2.8 M145.84 88.62 C117.51 63.74, 91.2 38.91, 38.06 -2.67 M158.53 91.71 C124.75 57.41, 95.91 31.46, 50.19 -6.98 M157.34 87.9 C124.61 58.96, 90.03 28.69, 53.22 -2.9 M171.27 85.27 C136.55 64.52, 113.66 40.29, 63.77 -7.1 M170.03 90.33 C142.99 62.42, 115.37 35.92, 64.13 -1.93 M182.24 90.93 C149.95 63.55, 122.08 33.52, 78.97 -1.95 M182.12 88.26 C144.29 60.29, 110.32 25.99, 78.12 -4.31 M196.9 91.32 C151.4 56.85, 116.98 20.19, 87.72 -5.29 M196.06 89.39 C169.13 71.32, 144.94 48.69, 88.54 -2.36 M204.93 92.13 C176.74 58.41, 142.92 32.43, 104.16 -0.18 M206.1 87.74 C184.6 69.59, 164.15 50.28, 102.04 -2.01 M219.72 91.03 C180.98 53.87, 144.31 18.47, 116.65 -0.62 M221.22 89 C179.15 53.75, 138.04 20.29, 113.97 -3.92 M230.38 88.09 C199.44 61.24, 158.42 26.79, 127.27 -2.62 M232.69 89.44 C192.07 56.62, 151.77 20.68, 123.52 -2.04 M246.26 92.06 C206.34 56.61, 161.91 20.7, 135.83 -5.8 M246.06 90.72 C199.7 51.25, 160.07 15.48, 137.09 -4.77 M256.88 90.74 C213.51 52.78, 176.06 23.3, 151.59 -7.76 M256.6 90.78 C223.78 61.44, 195.58 32.08, 147.63 -4.75 M271.52 91.94 C231.21 59.08, 188.97 24.8, 165.05 -6.42 M268.37 89.26 C239.12 64.47, 206.74 35.95, 161.83 -4.72 M267.1 75.35 C239.98 50.56, 205.73 31.02, 171.89 -5.61 M269.64 79.86 C234.4 45.48, 196.02 14.28, 175.66 -2.7 M268.15 69.69 C244.62 51.91, 224.75 35.64, 188.56 -6.18 M268.32 68.04 C241.38 48.44, 218.81 25.06, 185.35 -2.45 M265.58 54.2 C238.7 37.3, 212.88 15.13, 196.19 -3.61 M266.26 56.97 C249.56 39.29, 229.23 24.83, 198.91 -2.7 M271.8 46.16 C241.15 26.25, 217.82 8.78, 208.4 -6.34 M269.85 47.56 C252.69 33.57, 239.03 21.68, 211.35 -2.91 M267.67 33.88 C261.72 26.21, 245.51 19.57, 219.01 -6.11 M268.46 35.98 C250.03 21.91, 234.06 6.86, 223.94 -5.17 M269.51 21.7 C254.21 17.81, 242.55 5.97, 234.09 0.37 M269.01 27.1 C258.27 17.03, 247.29 8.44, 235.73 -3.31 M268.14 10.99 C259.36 4.47, 251.59 -1.96, 247.38 -3.57 M266.42 16.04 C263.7 10.59, 255.92 5.36, 246.54 -5.43 M270.31 4.73 C263.23 2.22, 261.84 -3.28, 257.44 -4.06 M266.89 5.03 C264.36 2.19, 262.55 -1.38, 259.86 -3.35" stroke="#228be6" stroke-width="1" fill="none"></path><path d="M-0.79 -0.44 C65.68 -2.64, 128.07 -2.64, 265.07 2.31 M-0.08 1.41 C94.47 -1.71, 185.96 -3.25, 268.69 0.11 M271.7 0.59 C270.04 22.06, 269.53 42.74, 264.45 88.03 M269.74 0.27 C267.59 34.2, 267.75 71.24, 268.23 87.12 M270.36 90.97 C182.37 89.32, 95.44 88.56, 2.1 87.29 M268.81 90.25 C206.8 90.36, 146.63 90.62, -1.42 90.53 M-0.84 87.35 C-1.73 66.5, 1.16 35.44, -1.6 2.92 M-1.8 90.35 C-0.22 61.71, -1.46 35.09, 1.83 1.02" stroke="#000000" stroke-width="2" fill="none"></path></g><g transform="translate(15 134.11648647487164) rotate(0 129 12.5)"><text x="129" y="18" font-family="Virgil, Segoe UI Emoji" font-size="20px" fill="#000000" text-anchor="middle" style="white-space: pre;" direction="ltr">InMemoryArchiveStorage</text></g><g stroke-linecap="round" transform="translate(332.71875 105.79171840846539) rotate(0 134 44.54351806640625)"><path d="M0 0 C0 0, 0 0, 0 0 M0 0 C0 0, 0 0, 0 0 M2.06 14.81 C5.23 11.34, 3.61 5.82, 10.31 -0.21 M0.37 11.34 C4.39 8.75, 8.84 3.56, 9.3 -0.16 M2.53 21.74 C4.75 19.01, 11.72 7.59, 20.78 1.91 M0.1 24.83 C7.62 15.05, 15.52 7.43, 20.03 0.58 M-3.88 40.3 C10.09 25.8, 24.02 4.56, 31.59 -2.66 M-0.3 38.64 C11.87 23.99, 22.64 9.57, 30.67 -1.23 M1.69 48.19 C15.56 35.03, 28.87 10.76, 38.99 1.77 M0.31 49.4 C13.9 33.65, 27.84 16.5, 41.76 -0.65 M3.65 61.15 C15.09 44.88, 37.19 20.7, 52.37 -1.59 M1.79 61.2 C22.36 36.14, 42.52 14.21, 52.42 -1.22 M0.15 69.64 C18.29 59.11, 33.75 36.52, 67.12 -3.07 M-1.14 72.88 C17.96 55.9, 30.16 39.94, 65.5 -0.46 M-0.68 82.58 C28.6 53.73, 60.47 14.74, 77.69 -3.52 M2.03 85.3 C26.9 56.27, 51.88 31.23, 73.1 0.64 M4.29 93.84 C28.54 65, 45.5 40.83, 82.53 -3.33 M2.93 91.29 C23.46 74.75, 41.73 51.87, 86.03 0.08 M12.91 91.27 C37.46 58.76, 71.24 25.85, 97.14 0.58 M14.63 92.23 C35.07 70.03, 52.27 48.91, 95.35 1.39 M22.85 92.73 C56.27 63.99, 81.09 32.86, 103.05 1.75 M25.25 93.58 C43.31 68.19, 65.06 47.01, 105.85 0.13 M36.4 91.04 C61.71 67.21, 79.71 41.71, 116.17 3.97 M35.22 93.25 C67.09 56.65, 97.35 23.12, 116.9 -0.89 M50.86 88.45 C73.4 57.02, 105.17 25.42, 130.39 -2.78 M48.18 91.69 C73.36 65.77, 97.51 35.11, 126.58 -0.12 M55.58 91.71 C77.42 69.96, 101.25 48.31, 134.69 -2.81 M56.51 94.33 C77.43 73.24, 94.31 50.13, 137.2 1.81 M68.27 91.77 C84.06 70.6, 102.29 53.86, 144.72 -2.68 M66.18 94.9 C96.87 57.65, 129.78 20.92, 147.52 1.5 M78.65 95.81 C93.46 75.56, 107.94 56.44, 159.15 -3.5 M76.85 94.89 C103.8 64.4, 132.23 35.17, 157.48 0.07 M89.5 94.72 C120.94 58.17, 147.56 27.52, 172.72 2.09 M87.45 94.53 C112.9 65.02, 136.01 39.02, 169.79 1.66 M100.28 95.11 C132.24 60.79, 164.33 25.51, 181.15 0.93 M100.31 92.34 C127.58 60.75, 152.43 30.51, 179.38 -0.07 M111.48 91.06 C138.54 63.16, 165.14 30.65, 194.25 2.3 M109.98 92.36 C126.41 73.7, 146.34 57.44, 190.9 0.54 M121.65 91.13 C137.68 71.28, 159.41 50.62, 200.8 0.99 M120.76 94.63 C153.23 58.97, 180.91 23.76, 200.27 -0.31 M132.33 89.33 C155 64.82, 182.15 34.48, 213.65 -3.77 M132.16 93.71 C150.49 71.23, 163.72 55.52, 212.12 -1.43 M145.12 92.15 C174.26 55.86, 206.44 20.06, 218.69 2.73 M140.44 93.17 C158.42 73.5, 173.49 56.46, 221.31 1.91 M150.63 89.54 C175.9 61.77, 203.98 33.36, 235.79 -2.35 M152.11 92.12 C175.8 68.17, 201.65 38.48, 234.45 0.43 M165.53 89.93 C192.35 64.56, 214.67 27.82, 243.92 3.65 M161.39 91.65 C194.36 58.62, 221.09 26.55, 243.37 1.38 M173.5 91.22 C193.63 65.67, 213.71 46.38, 258.02 3.83 M175.73 93.39 C201.58 61.15, 227.09 27.02, 254.65 -0.97 M186.26 91.77 C206.67 75.52, 221.27 46.95, 262.1 0.78 M185.35 93.99 C197 74.14, 215.55 55.73, 267.09 1.15 M192.54 93.4 C215.75 64.23, 239.84 41.87, 274.9 7.33 M196.66 91.58 C211.36 74.61, 227.64 57.26, 273.96 3.33 M203.13 96.42 C222.82 69.29, 249.01 42.96, 269.54 14.5 M205.83 92.35 C226.74 69.06, 246.85 47.11, 271.09 16.38 M215.84 94.59 C233.35 77.93, 243.01 61.65, 269.69 29.76 M216.27 92.99 C239.49 67.31, 260.53 42.37, 273.55 28.11 M228.51 94.16 C243.98 71.23, 257.02 51.81, 274.77 42.04 M228.11 91.18 C238.43 79.99, 247.82 69.78, 273.4 39.83 M236.01 92.82 C248.66 85.68, 255.92 71.49, 276.28 53.02 M235.71 92.16 C251.34 80.18, 260.59 68.36, 272.46 53.16 M251.25 90.76 C254.2 83.41, 269.28 71.11, 273.4 61.1 M249.19 91.14 C253.97 85.28, 260.69 81.25, 274.44 65.47 M262.15 93.62 C263.28 88.1, 270.52 78.63, 269.36 73.14 M259.87 91.89 C265.46 87.5, 267.45 79.81, 273.78 77.16 M-0.34 88.79 C-0.34 88.79, -0.34 88.79, -0.34 88.79 M-0.34 88.79 C-0.34 88.79, -0.34 88.79, -0.34 88.79 M12.28 90.67 C11.31 85.3, 5.61 79.69, -0.44 78.31 M13.56 88.33 C11.03 88.14, 5.62 85.96, -0.21 79.51 M28.49 89.96 C16.42 80.13, 10.93 70.92, -0.81 67.09 M24.34 87.24 C17.23 82.68, 8.55 74.62, 0.39 69.53 M34.45 87.2 C25.23 82.61, 23.29 74.47, -1.92 55.3 M35.82 90.23 C23.14 76.72, 10.27 66.36, 0.7 55.75 M48.23 88.6 C35.43 79.79, 25.86 68.96, -0.65 49.8 M48.21 88.96 C34.85 76.77, 16.84 64.18, 0.13 48.01 M60.93 91.63 C45.81 77.42, 29.58 63.99, -0.6 35.28 M59.76 90.78 C44.74 78.37, 32.06 63.33, 1.03 37.32 M74.48 88.86 C55.09 73.31, 42.26 66.3, 1.67 25.88 M73.19 89.68 C56.01 73.13, 35.81 55.78, -1.01 27.16 M87.55 92.37 C59.23 60.14, 28.68 35.38, -2.38 12.22 M86.21 90.25 C59.57 69.03, 30.9 43.24, 0.33 16.04 M97.1 92.69 C70.05 67.8, 40 42.23, 3.74 4.36 M97.52 90.01 C60.79 57.99, 24.3 23.89, -0.39 4.01 M108.38 91.14 C67.73 54.5, 27.33 18.42, 5.6 -2.5 M109.3 87.38 C70.4 57.42, 27.97 22.58, 4.13 -2.27 M124.68 87.52 C77.38 57.35, 40.2 15.91, 18.77 -1.11 M121.47 88.78 C99.15 71.53, 80.11 52.46, 15.46 -3 M137.05 91.76 C100.93 63.5, 72.08 32.88, 27.81 -0.85 M133.93 87.8 C110.06 73.08, 88.03 53.33, 28.8 -2.47 M150.33 92.29 C105.02 56.46, 71.95 27.87, 40.08 -3.11 M145.06 89.07 C103.55 53.64, 64.9 18.53, 39.4 -4.92 M160.64 86.96 C122.02 59.42, 85.54 25.82, 54.73 -0.78 M157.73 90.73 C118.89 52.12, 78.17 18.1, 51.98 -2.57 M173.39 91.45 C139.31 64.31, 114.88 42.56, 64.19 -3.3 M169.79 88.25 C147.18 70.54, 122.86 48.74, 62.76 -5.13 M185.02 86.91 C159.34 66.9, 134.65 50.57, 72.19 -4.31 M184.33 89.63 C148.55 59.85, 112.78 27.45, 77.93 -3.97 M196.74 87.6 C170.22 64.99, 148.13 44.76, 91.47 -1.99 M195.93 90.55 C172.43 65.95, 145.68 45.96, 87.92 -4.93 M208.53 85.29 C165.94 56.88, 128.16 18.69, 101.56 -3.38 M209.13 90.22 C176.23 67.17, 149.95 42.88, 101.66 -5.18 M220.7 88.19 C194.91 65.48, 160.05 43.87, 114.77 -0.01 M220.49 89.83 C186.13 60.97, 152.7 29.39, 113.02 -5.36 M227.78 89.31 C205.29 63.34, 176.76 38.22, 121.69 -1.01 M233.01 88.47 C187.07 54.26, 146.23 17.91, 126.92 -3.09 M241.13 86.8 C218.69 68.71, 192.64 47.88, 133.18 -0.65 M243.23 90.85 C220.61 67.59, 195.52 49.42, 137.7 -5.17 M258.87 92.31 C222.82 62.52, 183.75 27.91, 146.17 -6.77 M255.61 91.25 C216.05 58.8, 178.27 25.66, 147.48 -4.37 M267.39 89.91 C228.87 59.8, 189.94 20.33, 165.32 -5.07 M268.65 87.95 C237.3 64.48, 207.03 35.67, 160.35 -4.27 M271.31 82 C245.89 58.68, 232.29 44.68, 173.11 -6.74 M269.24 76.56 C250.44 62.37, 226.8 44.19, 172.86 -3.42 M271.43 68.44 C241.84 49.56, 219.96 28, 187.28 -1.56 M267.13 68.72 C244.36 47.06, 219.39 26.07, 184.09 -4.9 M265.48 58.06 C245.74 42.57, 224.7 26.32, 198.86 -5.46 M268.28 59.1 C251 41.46, 236.01 27.88, 198.06 -4.4 M265.24 50.16 C245.77 26.27, 222.99 3.62, 209.91 -0.93 M268.33 46.35 C245.82 27.37, 219.78 5.23, 210.06 -3.11 M269.53 37.51 C249.19 24, 229.75 8.31, 223.27 -5.33 M266.19 35.66 C253.16 26.2, 242.39 12.9, 224.85 -4.55 M269.18 25.35 C261.34 19.84, 252.24 8.52, 236.56 -6.52 M269.5 25.24 C256.63 13.56, 245.43 4.45, 235.17 -2.7 M268.07 18.38 C264.58 11.06, 257.55 2.36, 243.69 -3.91 M268.12 12.81 C260.65 7.97, 257.94 5.04, 247.74 -3.53 M265.69 6.31 C262.89 2.42, 259.33 -1.98, 260.11 -1.57 M267.82 5.29 C265.27 2.41, 263.17 -0.5, 258.27 -4.61" stroke="#228be6" stroke-width="1" fill="none"></path><path d="M-3.14 -2.64 C85.93 -6.95, 163.36 -6.68, 266.55 1.39 M1.21 0.95 C82.59 5.06, 162.77 4.35, 266.52 -0.7 M265.4 0.38 C267.03 26.63, 266.21 58.99, 271.8 87.38 M266.11 -0.04 C266.73 26.86, 267.03 50.11, 268.78 88.06 M265.81 86.82 C206.99 92.01, 149.15 90.67, 0.37 86.28 M267.14 87.74 C196.33 85.65, 124.88 85.26, -0.31 89.68 M-0.64 85.13 C1.94 64.54, -2.91 43.36, 2.34 3.57 M-1.48 88.01 C-2.22 69.84, 1.23 46.9, -1.2 1.31" stroke="#000000" stroke-width="2" fill="none"></path></g><g transform="translate(337.71875 137.83523647487164) rotate(0 129 12.5)"><text x="129" y="18" font-family="Virgil, Segoe UI Emoji" font-size="20px" fill="#000000" text-anchor="middle" style="white-space: pre;" direction="ltr">LocalArchiveStorage</text></g><g stroke-linecap="round"><g transform="translate(783.52734375 11.151642724871635) rotate(0 -326.77312810719013 0.39407532513141774)"><path d="M1.85 1.94 C-107.29 2.08, -546.41 -0.26, -655.4 -1.15" stroke="#000000" stroke-width="2.5" fill="none" stroke-dasharray="1.5 8"></path></g></g><g stroke-linecap="round"><g transform="translate(126.77734268009658 12.942184919118858) rotate(0 2.160411543965381 41.90020972043277)"><path d="M2.33 -2.69 C2.51 11.37, 2.04 71.22, 1.95 86.49" stroke="#000000" stroke-width="2.5" fill="none" stroke-dasharray="1.5 8"></path></g></g><g stroke-linecap="round"><g transform="translate(458.1902800187468 14.753740154206753) rotate(0 -2.592075099680038 42.592774787545224)"><path d="M-2.29 -1.1 C-2.79 13.5, -2.17 71.69, -2.89 86.28" stroke="#000000" stroke-width="2.5" fill="none" stroke-dasharray="1.5 8"></path></g></g><g transform="translate(148.83203125 44.596955224871635) rotate(0 32.5 12.5)"><text x="0" y="18" font-family="Virgil, Segoe UI Emoji" font-size="20px" fill="#000000" text-anchor="start" style="white-space: pre;" direction="ltr">stores</text></g><g transform="translate(475.01953125 46.136017724871635) rotate(0 32.5 12.5)"><text x="0" y="18" font-family="Virgil, Segoe UI Emoji" font-size="20px" fill="#000000" text-anchor="start" style="white-space: pre;" direction="ltr">stores</text></g><g stroke-linecap="round" transform="translate(334.21875 453.4753121584654) rotate(0 134 44.54351806640625)"><path d="M0 0 C0 0, 0 0, 0 0 M0 0 C0 0, 0 0, 0 0 M-3.07 14.77 C4.44 9.76, 4.71 7.32, 12.66 1.76 M-1.29 10.83 C3.27 7.16, 5.57 4.27, 10.19 0.24 M2.13 23.22 C6.57 16.86, 6.28 9.88, 24.34 -3.77 M2.08 22.44 C3.07 20.62, 6.92 13.59, 22.29 -0.13 M-4.22 34.49 C7.85 25.71, 15.41 16.71, 29.72 -3.88 M1 38.66 C10.12 23.56, 19.08 13.03, 33.52 -1.59 M-3.62 48.93 C11.1 33.21, 28.11 18.12, 39.54 2.36 M-1.74 48.39 C16.3 30.97, 31.72 11.2, 42.74 1.76 M-3.28 64.51 C11.17 46.17, 26.17 29.02, 50.46 0.42 M-1.47 61.84 C11.72 47.21, 22.57 37.31, 54.94 -0.03 M0.74 71.48 C25.66 41.65, 46.43 15.91, 64.62 -2.15 M1.18 72.67 C23.89 42.65, 51.29 15.76, 63.61 0.82 M1.82 82.12 C14.1 62.63, 33.78 42.41, 76.64 -2.8 M2.08 84.32 C25.27 56.24, 52.47 22.87, 73.26 -0.65 M5.76 91.21 C18.84 66.83, 37.78 50.25, 84.59 1.07 M4.05 90.9 C22.86 71.48, 41.95 47.45, 85.93 -0.69 M12.52 95.07 C44.64 58.96, 75.46 26.07, 93.04 1.07 M14.13 92.77 C42.56 58.65, 72.07 28.22, 95.66 -1.3 M27.35 89.63 C61.94 59.16, 88.45 23.78, 108 -1.13 M26.17 91.1 C50.84 63.14, 74.22 37.08, 107.02 -0.75 M39.5 89.27 C56.43 70.84, 73.05 48.13, 115.29 3.89 M35.11 91.25 C69.66 55.93, 99.66 18.55, 116.92 0.66 M50.71 91.45 C71.64 60.99, 103.26 31.98, 126.19 3.34 M44.91 91.81 C80.23 57.12, 107.73 20.56, 127.76 -0.86 M54.2 89.62 C72.39 74.31, 90.59 50.42, 136.46 3.74 M59.02 94.08 C78.07 68.18, 97.95 43.06, 138.01 1.36 M68.97 95.03 C95.64 54.25, 130.28 24.66, 148 0.84 M66.28 92.39 C89.29 73.77, 105.24 50.45, 147.27 -1.01 M81.49 90.71 C108.3 62.69, 135.8 30.22, 155.18 1.48 M77.99 92.52 C104.5 65.78, 131.04 34.35, 158.2 -1.07 M92.72 96.97 C107.48 73.38, 118.59 52.25, 171.81 -3.53 M90.52 93.75 C108.16 71.87, 123.32 48.88, 170.95 0.82 M99.72 93.4 C118.09 65.21, 139.01 48.97, 178.21 -2.29 M98.4 91.32 C123.13 62.45, 147.12 37.19, 181.69 -1.48 M106.06 96.63 C136.31 61.3, 171.42 21.19, 188.14 3.09 M108.16 94.75 C132.45 66.48, 159.72 39.42, 189.1 1.63 M116.74 93.3 C151.42 58.56, 176.29 31.7, 203.83 1.54 M120.87 93.26 C148.98 60.07, 178.89 28.09, 200.88 1.01 M133.27 93.09 C143.92 74.18, 164.54 53.65, 211 2.03 M130.62 93.3 C161.5 56.38, 194.64 22.79, 212.26 -1.8 M140.59 93.74 C162.66 65.02, 188.72 38.27, 221.82 -1.44 M142.98 92.08 C160.62 72.56, 177.16 54.06, 224.46 -0.97 M150.13 93.98 C173.69 67.16, 193.16 42.24, 229.93 -0.84 M153.57 91.03 C169.49 71.28, 186 50.38, 231.23 -0.97 M162.78 90.58 C191.06 61.53, 219.67 34.34, 245.45 -1.11 M162.51 93.31 C192.73 59.12, 224.37 22.32, 245.34 0.98 M171.9 91.37 C197.16 65.54, 217.12 38.81, 257.95 0.83 M172.94 93.32 C194.2 69.38, 214.84 44.98, 253.08 0.39 M182.33 96.19 C212.9 61.31, 242.29 25.82, 263.48 -2.89 M185.52 94.2 C216.86 57.7, 246.17 24.76, 264.72 -1.01 M197.37 93.89 C217.86 63.51, 236.4 37.55, 272.29 1.65 M196.91 93.31 C218.35 69.1, 236.74 45.98, 273.81 2.05 M205.78 91.39 C222.04 75.35, 237.17 58.88, 274.43 12.18 M206.3 91.76 C222.13 74.9, 241.63 51.5, 274.23 16.8 M216.81 94.63 C229.53 77.85, 247.73 56.85, 269.9 26.35 M217.9 91.89 C233.21 78.06, 247.81 57.81, 273.89 29.14 M223.15 89.56 C235.27 80.33, 252.6 63.03, 271.96 40.91 M227.41 90.77 C239.53 77.66, 253.74 60.24, 273.46 39.25 M235.98 95.19 C252.12 80.74, 261.87 63.76, 273.33 52.89 M236.58 93.7 C248.71 77.02, 262.92 65.29, 272.15 51.29 M247.95 88.53 C259.58 79.26, 261.67 72.57, 275.87 61.59 M247.66 91.72 C251.81 85.87, 259.24 81.32, 272.85 63.91 M260.17 89.67 C264.59 92.04, 265.68 84.55, 268.93 74.37 M257.9 91.11 C265.23 87.81, 269.36 78.43, 271.98 76.5 M-0.34 88.79 C-0.34 88.79, -0.34 88.79, -0.34 88.79 M-0.34 88.79 C-0.34 88.79, -0.34 88.79, -0.34 88.79 M10.82 86.14 C7.79 85.35, 1.02 78.47, 1.65 77.25 M11.55 89.2 C10.79 88.25, 5.59 85.16, 0.33 77.39 M25.26 87.63 C18.2 80.73, 13.78 76.02, -1.14 71.41 M23.78 89.08 C18.71 82.94, 9.54 76.06, -1.5 69.89 M37.38 92.01 C23.65 80.44, 17.07 74.08, -2.53 54.82 M36.55 89.79 C27.1 80.01, 17.31 73.31, 0.99 56.71 M47.34 88.94 C38.19 78.64, 19.54 66.36, 2.27 46.47 M47.54 88.26 C30.34 72.26, 8.78 54.81, 2.16 47.94 M58.07 85.67 C48 71.43, 29.34 58.83, -1.58 38.89 M60.61 89.66 C41.28 71.66, 21.27 53.24, 0.01 34.87 M70.71 88.13 C50.41 65.36, 23.95 40.42, 3.51 27.64 M72.89 89.58 C55.54 75.81, 41.14 57.47, -0.46 24.02 M84.61 87.32 C62.77 70.8, 39.42 53.62, -1.36 16.31 M86.25 88.85 C64.57 69.84, 44.34 50.95, -0.71 14.65 M96.87 92.23 C73.23 70.51, 49.73 50.89, 3.35 5.53 M98.36 91.02 C74.46 66.73, 47.68 50.17, 1.81 4.25 M110.29 92.24 C84.34 66.32, 50.8 39.38, 1.68 -7.44 M110.14 89.18 C66.51 48.7, 24.31 14.03, 3.17 -3.32 M121.12 86.75 C93.98 65.83, 63.7 34.15, 17.16 -7.66 M121.02 88.22 C99.37 70.92, 79.4 52.65, 15.49 -4.36 M130.87 90.85 C89.02 47.37, 48.41 12.46, 25.68 -5.27 M136.21 90.85 C94.24 55.3, 55.27 19.93, 27.31 -5.54 M146.22 89.7 C110.13 58.17, 78.74 31.82, 39.42 -0.89 M146.16 88.6 C116.51 60.8, 85 35.65, 38.98 -4.76 M154.62 87.44 C125.57 59.31, 83.37 22.54, 49.77 -7.05 M157.63 87.18 C124.42 57.84, 90 29.12, 53.12 -4.19 M172.2 85.61 C136.53 56.78, 105.93 31.3, 66.85 -7.27 M169.09 89.38 C140.2 64.56, 108.21 38.97, 65.63 -4.75 M183.57 88.77 C157.76 62.36, 129.57 39.18, 79.48 -1.72 M182.08 89.22 C154.66 68.92, 128.24 45.08, 77.16 -3.33 M193.57 86.15 C159.34 54.87, 128.18 28.38, 90.97 -1.53 M196.36 90.12 C160.32 61.53, 125.03 31.47, 88.38 -2.55 M211.25 86.08 C179.81 70.27, 159.19 45.33, 98.83 -7.13 M205.49 87.75 C182.84 68.26, 155.16 42.05, 99.23 -4.64 M217.37 92.86 C181.94 55.25, 137.26 20.11, 110.8 -5.91 M219.76 87.51 C187.08 56.95, 151.33 28.33, 112.41 -4.59 M228.42 85.18 C207.93 68.37, 186.09 52.63, 128.34 -3.24 M229.77 87.36 C199.84 65.04, 175.26 43.15, 124.38 -4.67 M245.12 86.41 C211.56 59.67, 179.05 26.39, 138.63 -4.13 M242.36 88.65 C214.54 65.86, 190.56 42.35, 136.88 -3.57 M252.37 86.98 C221.61 56.98, 180.51 19.79, 150.3 -7.54 M256.12 90.99 C231.82 70.78, 209.51 46.83, 148.16 -2.25 M266.83 85.32 C226.77 52.39, 188.76 13.11, 165.22 -0.77 M268.44 89.71 C228.53 49.34, 186.43 13.93, 160.23 -1.78 M268.78 79.76 C243.91 62.54, 222.47 45.25, 170.47 -5.02 M266.87 80.22 C246.73 61.46, 224.3 41.81, 174.37 -4.46 M266.13 65.63 C244.58 45.41, 223.76 24.73, 185.84 -2.54 M268.66 67.64 C249.48 49.51, 224.64 28.04, 186.12 -4.4 M269.19 56.79 C237.33 32.52, 209.81 8.6, 199.86 -6.15 M266.96 56.84 C240.8 32.75, 213.31 7.1, 196.8 -4.61 M265.71 45.16 C251.26 28.99, 240.34 15.91, 213.52 -5.68 M269.46 48.43 C248.64 32.27, 228.42 14.94, 208.74 -2.88 M271.93 37.67 C255.2 24.93, 241.5 12.92, 220.03 -2.26 M268.88 36.24 C250.09 21.89, 233.62 7.26, 224.53 -1.61 M271.57 29.28 C263.27 15.11, 249.03 12.78, 236.79 -5.94 M269.41 24.84 C258.41 16.28, 247.05 7.94, 234.51 -4.93 M266.79 15.99 C264.25 9.33, 260.15 5.28, 248.97 -2.8 M269.31 15.04 C263.52 9.17, 257.64 5.26, 247.83 -5.27 M266.37 6.34 C263.71 3.54, 261.67 -3.07, 258.05 -1.82 M267.61 4.88 C265.09 3.43, 263.53 0.91, 259.52 -4.2" stroke="#15aabf" stroke-width="1" fill="none"></path><path d="M1.95 -2.65 C94.39 3.55, 192.39 3.27, 267.03 1.53 M0.89 -0.07 C104.95 0.49, 208.32 -0.82, 267.34 -1.02 M265.23 -2.68 C266.23 22.38, 268.31 49.92, 268.89 88.61 M268.84 0 C265.11 21.28, 265.87 40.35, 266.58 88.6 M269.09 89.32 C193.05 95.84, 122.04 91.58, -1.4 89.97 M268.39 87.98 C201.18 87.15, 133.16 88.12, 0.73 90.05 M0.57 86.68 C-0.83 65.3, 1.63 48.25, 1.65 -2.95 M1.85 88.32 C2.58 63.65, 1.9 40.08, 0.58 -1.03" stroke="#000000" stroke-width="2" fill="none"></path></g><g transform="translate(339.21875 485.51883022487164) rotate(0 129 12.5)"><text x="129" y="18" font-family="Virgil, Segoe UI Emoji" font-size="20px" fill="#000000" text-anchor="middle" style="white-space: pre;" direction="ltr">ArchiveService</text></g><g stroke-linecap="round"><g transform="translate(778.8878223001957 501.3172079712152) rotate(0 3.3409873330235484 -65.31509281545877)"><path d="M2.23 -0.93 C3.25 -23, 3.6 -107.79, 4.45 -129.7" stroke="#000000" stroke-width="2.5" fill="none" stroke-dasharray="1.5 8"></path></g><g transform="translate(778.8878223001957 501.3172079712152) rotate(0 3.3409873330235484 -65.31509281545877)"><path d="M12.82 -103.42 C11.7 -105.97, 5.51 -113.98, 1.45 -128.09" stroke="#000000" stroke-width="2.5" fill="none" stroke-dasharray="1.5 6"></path></g><g transform="translate(778.8878223001957 501.3172079712152) rotate(0 3.3409873330235484 -65.31509281545877)"><path d="M-7.7 -103.83 C-3.86 -106.61, -5.11 -114.52, 1.45 -128.09" stroke="#000000" stroke-width="2.5" fill="none" stroke-dasharray="1.5 6"></path></g></g><g stroke-linecap="round"><g transform="translate(776.763671875 501.23562709987164) rotate(0 -86.89071311354635 1.1037707813084126)"><path d="M-1.47 0.39 C-30.38 1.01, -144.33 1.77, -172.31 1.82" stroke="#000000" stroke-width="2.5" fill="none" stroke-dasharray="1.5 8"></path></g></g><g stroke-linecap="round"><g transform="translate(789.7297898030639 15.745184116065559) rotate(0 -1.4243518984675063 132.51634825319053)"><path d="M-1.8 -0.43 C-1.81 43.38, -1.23 221.79, -1.05 265.47" stroke="#000000" stroke-width="2.5" fill="none" stroke-dasharray="1.5 8"></path></g><g transform="translate(789.7297898030639 15.745184116065559) rotate(0 -1.4243518984675063 132.51634825319053)"><path d="M-12.03 233.35 C-4.69 241.41, -7.41 249.22, -4.5 265.52" stroke="#000000" stroke-width="2.5" fill="none" stroke-dasharray="1.5 6"></path></g><g transform="translate(789.7297898030639 15.745184116065559) rotate(0 -1.4243518984675063 132.51634825319053)"><path d="M8.49 233.27 C10.39 241.09, 2.21 248.93, -4.5 265.52" stroke="#000000" stroke-width="2.5" fill="none" stroke-dasharray="1.5 6"></path></g></g><g transform="translate(701.3515625 474.36258022487164) rotate(0 22.5 12.5)"><text x="0" y="18" font-family="Virgil, Segoe UI Emoji" font-size="20px" fill="#000000" text-anchor="start" style="white-space: pre;" direction="ltr">uses</text></g><g transform="translate(496.3515625 424.36258022487164) rotate(0 17.5 12.5)"><text x="0" y="18" font-family="Virgil, Segoe UI Emoji" font-size="20px" fill="#000000" text-anchor="start" style="white-space: pre;" direction="ltr">has</text></g></svg>